<svg width="512" height="512" xmlns="http://www.w3.org/2000/svg"><path fill="#776be7" d="M0 0h512v512H0z"/><path d="M352.192 326.12l-13.576-37.112h-59.568l-13.38 37.112h-19.336l54.296-142.188h16.408l54.392 142.188zm-140.72-41.212V183.932h18.844v100.68a54.608 54.608 0 01-1.547 13.392 37.432 37.432 0 01-10.709 18.544 41.344 41.344 0 01-20.148 10.28 59.98 59.98 0 01-12.52 1.24 66.655 66.655 0 01-13.176-1.22q-11.984-2.416-19.829-9.616a35.376 35.376 0 01-10.663-19.012 52.92 52.92 0 01-1.152-11.36h18.748a35.8 35.8 0 00.792 7.759q1.144 5.154 3.94 8.977a21.172 21.172 0 001.96 2.308 21.457 21.457 0 009.424 5.528q3.44 1.02 7.584 1.24a44.072 44.072 0 002.376.068q11.62 0 18.8-7.324a24.26 24.26 0 006.024-10.76q1.048-3.807 1.216-8.344a47.1 47.1 0 00.032-1.403zm97.36-77.832l-24.12 66.504h48.34z" vector-effect="non-scaling-stroke" fill-rule="evenodd" font-size="12" fill="#fff"/></svg>