<svg width="512" height="512" xmlns="http://www.w3.org/2000/svg"><path d="M287.5 247q5.625 0 9.563-3.938Q301 239.125 301 233.5t-3.938-9.563Q293.125 220 287.5 220t-9.563 3.938Q274 227.875 274 233.5t3.938 9.563Q281.875 247 287.5 247zm-63 0q5.625 0 9.563-3.938Q238 239.125 238 233.5t-3.938-9.563Q230.125 220 224.5 220t-9.563 3.938Q211 227.875 211 233.5t3.938 9.563Q218.875 247 224.5 247zm31.5 58.5q15.3 0 27.788-8.662Q296.275 288.174 301.9 274h-91.8q5.625 14.175 18.113 22.838Q240.7 305.5 256 305.5zm0 40.5q-18.675 0-35.1-7.088-16.425-7.087-28.575-19.237-12.15-12.15-19.238-28.575Q166 274.675 166 256t7.087-35.1q7.088-16.425 19.238-28.575 12.15-12.15 28.575-19.238Q237.325 166 256 166t35.1 7.087q16.425 7.088 28.575 19.238 12.15 12.15 19.237 28.575Q346 237.325 346 256t-7.088 35.1q-7.087 16.425-19.237 28.575-12.15 12.15-28.575 19.237Q274.675 346 256 346zm0-90zm0 72q30.15 0 51.075-20.925Q328 286.15 328 256q0-30.15-20.925-51.075Q286.15 184 256 184q-30.15 0-51.075 20.925Q184 225.85 184 256q0 30.15 20.925 51.075Q225.85 328 256 328z" fill="#fff"/></svg>