<svg width="512" height="512" xmlns="http://www.w3.org/2000/svg"><path d="M300.8 243.2q8 0 13.6-5.6T320 224q0-8-5.6-13.6t-13.6-5.6q-8 0-13.6 5.6t-5.6 13.6q0 8 5.6 13.6t13.6 5.6zm-89.6 0q8 0 13.6-5.6t5.6-13.6q0-8-5.6-13.6t-13.6-5.6q-8 0-13.6 5.6T192 224q0 8 5.6 13.6t13.6 5.6zm44.8 83.2q21.76 0 39.52-12.32 17.76-12.322 25.76-32.48H190.72q8 20.16 25.76 32.48Q234.24 326.4 256 326.4zm0 57.6q-26.56 0-49.92-10.08-23.36-10.08-40.64-27.36t-27.36-40.64Q128 282.56 128 256q0-26.56 10.08-49.92 10.08-23.36 27.36-40.64t40.64-27.36Q229.44 128 256 128q26.56 0 49.92 10.08 23.36 10.08 40.64 27.36t27.36 40.64Q384 229.44 384 256q0 26.56-10.08 49.92-10.08 23.36-27.36 40.64t-40.64 27.36Q282.56 384 256 384zm0-128zm0 102.4q42.88 0 72.64-29.76Q358.4 298.88 358.4 256q0-42.88-29.76-72.64Q298.88 153.6 256 153.6q-42.88 0-72.64 29.76Q153.6 213.12 153.6 256q0 42.88 29.76 72.64Q213.12 358.4 256 358.4z" fill="#FFF7FA"/></svg>