<svg width="128" height="128" xmlns="http://www.w3.org/2000/svg"><path fill="#776be7" d="M0 0h128v128H0z"/><path d="M88.048 81.53l-3.394-9.278H69.762l-3.345 9.278h-4.834l13.574-35.547h4.102L92.857 81.53zm-35.18-10.303V45.983h4.711v25.17a13.652 13.652 0 01-.387 3.348 9.358 9.358 0 01-2.677 4.636 10.336 10.336 0 01-5.037 2.57 14.995 14.995 0 01-3.13.31 16.664 16.664 0 01-3.294-.305q-2.996-.604-4.957-2.404a8.844 8.844 0 01-2.666-4.753 13.23 13.23 0 01-.288-2.84h4.687a8.95 8.95 0 00.198 1.94q.286 1.288.985 2.244a5.293 5.293 0 00.49.577 5.364 5.364 0 002.356 1.382q.86.255 1.896.31a11.018 11.018 0 00.594.017q2.905 0 4.7-1.831a6.065 6.065 0 001.506-2.69q.262-.952.304-2.086a11.775 11.775 0 00.008-.351zm24.34-19.458l-6.03 16.626h12.085z" vector-effect="non-scaling-stroke" fill-rule="evenodd" font-size="12" fill="#fff"/></svg>