<svg width="512" height="512" xmlns="http://www.w3.org/2000/svg"><path style="line-height:1.25;-inkscape-font-specification:Roboto" d="M213.25 151.812h18.094v96.656q0 19.594-11.813 30.656-11.718 11.063-31.312 11.063-20.344 0-31.688-10.406-11.343-10.407-11.343-29.157h18q0 11.72 6.375 18.282 6.468 6.562 18.656 6.562 11.156 0 18-7.03 6.937-7.032 7.031-19.689zm122.063 100.875h-57.188l-12.844 35.625H246.72l52.125-136.5h15.75l52.219 136.5h-18.469zm-51.75-14.813h46.406l-23.25-63.843z" aria-label="JA" font-size="192" fill="#fff" font-family="Roboto" letter-spacing="0" word-spacing="0"/><path d="M188.68 359.459v-53.084h14.985q6.927 0 12.25 3.063 5.323 3.062 8.203 8.714 2.917 5.65 2.953 12.979v3.39q0 7.51-2.916 13.162-2.88 5.651-8.276 8.677-5.36 3.026-12.506 3.099zm7-47.323v41.599h7.365q8.094 0 12.578-5.031 4.521-5.032 4.521-14.328v-3.1q0-9.041-4.265-14.036-4.23-5.031-12.032-5.104zm41.964 47.323v-53.084h17.354q8.641 0 12.98 3.573 4.375 3.573 4.375 10.573 0 3.72-2.115 6.6-2.114 2.843-5.76 4.41 4.302 1.204 6.781 4.595 2.516 3.354 2.516 8.02 0 7.146-4.63 11.23-4.63 4.083-13.09 4.083zm7-24.828v19.104h11.558q4.885 0 7.692-2.516 2.844-2.552 2.844-7 0-9.588-10.427-9.588zm0-5.615h10.573q4.594 0 7.328-2.297 2.771-2.297 2.771-6.234 0-4.375-2.552-6.344-2.552-2.005-7.766-2.005h-10.354zm78.678 23.48q-2.698 3.864-7.547 5.796-4.813 1.896-11.23 1.896-6.489 0-11.52-3.026-5.032-3.062-7.802-8.677-2.735-5.615-2.808-13.016v-4.63q0-11.995 5.578-18.594 5.615-6.599 15.75-6.599 8.313 0 13.38 4.266 5.068 4.23 6.199 12.031h-7q-1.97-10.536-12.542-10.536-7.037 0-10.682 4.958-3.61 4.922-3.646 14.292v4.338q0 8.933 4.083 14.22 4.083 5.25 11.047 5.25 3.938 0 6.89-.876 2.954-.875 4.886-2.953v-11.922h-12.286v-5.687h19.25z" style="line-height:1.25;-inkscape-font-specification:Roboto" aria-label="DBG" font-size="74.667" font-family="Roboto" letter-spacing="0" word-spacing="0" fill="#0f0"/></svg>