<svg width="512" height="512" xmlns="http://www.w3.org/2000/svg"><path d="M287.5 213.625q5.625 0 9.563-3.938Q301 205.75 301 200.125t-3.938-9.563q-3.937-3.937-9.562-3.937t-9.563 3.938Q274 194.5 274 200.125t3.938 9.563q3.937 3.937 9.562 3.937zm-63 0q5.625 0 9.563-3.938Q238 205.75 238 200.125t-3.938-9.563q-3.937-3.937-9.562-3.937t-9.563 3.938Q211 194.5 211 200.125t3.938 9.563q3.937 3.937 9.562 3.937zm31.5 58.5q15.3 0 27.788-8.662 12.487-8.664 18.112-22.838h-91.8q5.625 14.175 18.113 22.838 12.487 8.662 27.787 8.662zm0 40.5q-18.675 0-35.1-7.088-16.425-7.087-28.575-19.237-12.15-12.15-19.238-28.575Q166 241.3 166 222.625t7.087-35.1q7.088-16.425 19.238-28.575 12.15-12.15 28.575-19.238 16.425-7.087 35.1-7.087t35.1 7.087q16.425 7.088 28.575 19.238 12.15 12.15 19.237 28.575Q346 203.95 346 222.625t-7.088 35.1q-7.087 16.425-19.237 28.575-12.15 12.15-28.575 19.237-16.425 7.088-35.1 7.088zm0-90zm0 72q30.15 0 51.075-20.925Q328 252.775 328 222.625q0-30.15-20.925-51.075Q286.15 150.625 256 150.625q-30.15 0-51.075 20.925Q184 192.475 184 222.625q0 30.15 20.925 51.075Q225.85 294.625 256 294.625z" fill="#FFF7F8"/><text style="line-height:1.25;-inkscape-font-specification:Roboto" x="193.016" y="368.75" font-size="64" font-family="Roboto" letter-spacing="0" word-spacing="0" fill="#FFF7F8" transform="translate(0 10)"><tspan x="193.016" y="368.75">DBG</tspan></text></svg>