<svg width="512" height="512" xmlns="http://www.w3.org/2000/svg"><path d="M312 240q10 0 17-7t7-17q0-10-7-17t-17-7q-10 0-17 7t-7 17q0 10 7 17t17 7zm-112 0q10 0 17-7t7-17q0-10-7-17t-17-7q-10 0-17 7t-7 17q0 10 7 17t17 7zm56 104q27.2 0 49.4-15.4 22.2-15.402 32.2-40.6H174.4q10 25.2 32.2 40.6Q228.8 344 256 344zm0 72q-33.2 0-62.4-12.6-29.2-12.6-50.8-34.2-21.6-21.6-34.2-50.8Q96 289.2 96 256t12.6-62.4q12.6-29.2 34.2-50.8 21.6-21.6 50.8-34.2Q222.8 96 256 96t62.4 12.6q29.2 12.6 50.8 34.2 21.6 21.6 34.2 50.8Q416 222.8 416 256t-12.6 62.4q-12.6 29.2-34.2 50.8-21.6 21.6-50.8 34.2Q289.2 416 256 416zm0-160zm0 128q53.6 0 90.8-37.2Q384 309.6 384 256q0-53.6-37.2-90.8Q309.6 128 256 128q-53.6 0-90.8 37.2Q128 202.4 128 256q0 53.6 37.2 90.8Q202.4 384 256 384z" fill="#fff7f8"/></svg>