<?xml version="1.0" encoding="UTF-8" standalone="no"?>
<svg
   width="1024"
   height="500"
   version="1.1"
   id="svg1"
   sodipodi:docname="feature_graphic.svg"
   inkscape:version="1.3.2 (091e20e, 2023-11-25, custom)"
   xmlns:inkscape="http://www.inkscape.org/namespaces/inkscape"
   xmlns:sodipodi="http://sodipodi.sourceforge.net/DTD/sodipodi-0.dtd"
   xmlns="http://www.w3.org/2000/svg"
   xmlns:svg="http://www.w3.org/2000/svg">
  <defs
     id="defs1" />
  <sodipodi:namedview
     id="namedview1"
     pagecolor="#ffffff"
     bordercolor="#666666"
     borderopacity="1.0"
     inkscape:showpageshadow="2"
     inkscape:pageopacity="0.0"
     inkscape:pagecheckerboard="0"
     inkscape:deskcolor="#d1d1d1"
     inkscape:zoom="0.94006851"
     inkscape:cx="490.38979"
     inkscape:cy="287.74499"
     inkscape:window-width="1920"
     inkscape:window-height="1027"
     inkscape:window-x="1912"
     inkscape:window-y="-8"
     inkscape:window-maximized="1"
     inkscape:current-layer="svg1" />
  <path
     fill="#776be7"
     d="M 0,0 H 1024 V 500 H 0 Z"
     id="path1"
     style="stroke-width:1.39754" />
  <path
     d="m 199.28516,187 h 13.57031 v 72.49219 q 0,14.69531 -8.85938,22.99218 -8.78906,8.29688 -23.48437,8.29688 -15.25781,0 -23.76563,-7.80469 -8.50781,-7.80469 -8.50781,-21.86719 h 13.5 q 0,8.78907 4.78125,13.71094 4.85156,4.92188 13.99219,4.92188 8.36719,0 13.5,-5.27344 5.20312,-5.27344 5.27344,-14.76563 z m 31.07812,63.63281 q 0,-11.17969 4.35938,-20.10937 4.42968,-8.92969 12.23437,-13.78125 7.875,-4.85157 17.92969,-4.85157 15.53906,0 25.10156,10.75782 9.63281,10.75781 9.63281,28.61718 v 0.91407 q 0,11.10937 -4.28906,19.96875 -4.21875,8.78906 -12.16406,13.71093 -7.875,4.92188 -18.14063,4.92188 -15.46875,0 -25.10156,-10.75781 -9.5625,-10.75782 -9.5625,-28.47657 z m 13.07813,1.54688 q 0,12.65625 5.83593,20.32031 5.90625,7.66406 15.75,7.66406 9.91407,0 15.75,-7.73437 5.83594,-7.80469 5.83594,-21.79688 0,-12.51562 -5.97656,-20.25 -5.90625,-7.80469 -15.75,-7.80469 -9.63281,0 -15.53906,7.66407 -5.90625,7.66406 -5.90625,21.9375 z m 119.46093,29.67187 q -7.59375,8.92969 -22.28906,8.92969 -12.16406,0 -18.5625,-7.03125 -6.32812,-7.10156 -6.39844,-20.95313 v -49.5 h 13.00782 v 49.14844 q 0,17.29688 14.0625,17.29688 14.90625,0 19.82812,-11.10938 v -55.33594 h 13.00781 V 289.375 h -12.375 z m 69.1875,-56.88281 q -2.95312,-0.49219 -6.39843,-0.49219 -12.79688,0 -17.36719,10.89844 v 54 h -13.00781 v -76.07813 h 12.65625 l 0.21093,8.78907 q 6.39844,-10.19532 18.14063,-10.19532 3.79687,0 5.76562,0.98438 z m 24.25782,-11.67188 0.42187,9.5625 q 8.71875,-10.96875 22.78125,-10.96875 24.11719,0 24.32813,27.21094 V 289.375 h -13.00782 v -50.34375 q -0.0703,-8.22656 -3.79687,-12.16406 -3.65625,-3.9375 -11.46094,-3.9375 -6.32812,0 -11.10937,3.375 -4.78125,3.375 -7.45313,8.85937 V 289.375 H 444.04297 V 213.29687 Z M 570.46484,289.375 q -1.125,-2.25 -1.82812,-8.01563 -9.07031,9.42188 -21.65625,9.42188 -11.25,0 -18.49219,-6.32813 -7.17187,-6.39843 -7.17187,-16.17187 0,-11.88281 9,-18.42188 9.07031,-6.60937 25.45312,-6.60937 h 12.65625 v -5.97656 q 0,-6.82032 -4.07812,-10.82813 -4.07813,-4.07812 -12.02344,-4.07812 -6.96094,0 -11.67188,3.51562 -4.71093,3.51563 -4.71093,8.50781 h -13.07813 q 0,-5.69531 4.00781,-10.96875 4.07813,-5.34375 10.96875,-8.4375 6.96094,-3.09375 15.25782,-3.09375 13.14843,0 20.60156,6.60938 7.45312,6.53906 7.73437,18.07031 v 35.01563 q 0,10.47656 2.67188,16.66406 v 1.125 z m -21.58593,-9.91406 q 6.11718,0 11.60156,-3.16407 5.48437,-3.16406 7.94531,-8.22656 v -15.60937 h -10.19531 q -23.90625,0 -23.90625,13.99218 0,6.11719 4.07812,9.5625 4.07813,3.44532 10.47657,3.44532 z m 67.07812,9.91406 h -13.00781 v -108 h 13.00781 z m 79.38281,-26.71875 H 652.44922 L 642.81641,289.375 H 628.89453 L 667.98828,187 h 11.8125 l 39.16406,102.375 h -13.85156 z m -38.8125,-11.10938 h 34.80469 l -17.4375,-47.88281 z m 138.44532,0.63282 q 0,17.36718 -7.94532,27.98437 -7.94531,10.61719 -21.51562,10.61719 -13.85156,0 -21.79688,-8.78906 V 318.625 H 730.70703 V 213.29687 h 11.88281 l 0.63282,8.4375 q 7.94531,-9.84375 22.07812,-9.84375 13.71094,0 21.65625,10.33594 8.01563,10.33594 8.01563,28.75781 z m -13.00782,-1.47657 q 0,-12.86718 -5.48437,-20.32031 -5.48438,-7.45312 -15.04688,-7.45312 -11.8125,0 -17.71875,10.47656 v 36.35156 q 5.83594,10.40625 17.85938,10.40625 9.35156,0 14.83594,-7.38281 5.55468,-7.45313 5.55468,-22.07813 z m 93.79688,1.47657 q 0,17.36718 -7.94531,27.98437 -7.94532,10.61719 -21.51563,10.61719 -13.85156,0 -21.79687,-8.78906 V 318.625 H 811.49609 V 213.29687 h 11.88282 l 0.63281,8.4375 q 7.94531,-9.84375 22.07812,-9.84375 13.71094,0 21.65625,10.33594 8.01563,10.33594 8.01563,28.75781 z m -13.00781,-1.47657 q 0,-12.86718 -5.48438,-20.32031 -5.48437,-7.45312 -15.04687,-7.45312 -11.8125,0 -17.71875,10.47656 v 36.35156 q 5.83593,10.40625 17.85937,10.40625 9.35156,0 14.83594,-7.38281 5.55469,-7.45313 5.55469,-22.07813 z"
     id="text1"
     style="font-size:144px;line-height:1.25;font-family:Roboto;-inkscape-font-specification:Roboto;letter-spacing:0px;word-spacing:0px;fill:#ffffff;stroke-width:0.75"
     aria-label="JournalApp" />
</svg>
