<svg width="505.225" height="95.313" xmlns="http://www.w3.org/2000/svg"><path d="M210.14 24.717h7.69l.264 5.977a18.006 18.006 0 016.228-5.115q3.469-1.687 7.734-1.74a22.336 22.336 0 01.276-.001 19.05 19.05 0 016.336.965q8.77 3.087 8.869 16.042v31.42h-8.13V40.802q-.045-5.142-2.35-7.603-1.862-1.985-5.395-2.368a16.597 16.597 0 00-1.791-.093 12.529 12.529 0 00-4.144.668 11.233 11.233 0 00-2.799 1.442 14.323 14.323 0 00-4.658 5.537v33.882h-8.13zm-50.537 47.549l-.175-4.703q-4.696 5.523-13.739 5.581a29.992 29.992 0 01-.192 0 20.865 20.865 0 01-4.6-.475q-4.307-.974-6.98-3.941a14.1 14.1 0 01-2.83-4.973q-.72-2.12-1.004-4.709a32.589 32.589 0 01-.187-3.392V24.717h8.13v30.718q0 10.81 8.79 10.81a19.273 19.273 0 004.508-.49q5.625-1.354 7.884-6.453V24.717h8.13v47.549zm213.705 0l-6.107-16.7h-26.806l-6.022 16.7h-8.7L350.105 8.28h7.382l24.478 63.985zm-75.628 0h-8.525q-.704-1.406-1.143-5.01a19.333 19.333 0 01-6.22 4.417 18.14 18.14 0 01-7.316 1.472 20.334 20.334 0 01-5.292-.656 15.29 15.29 0 01-6.243-3.321 12.782 12.782 0 01-4.486-9.307 16.03 16.03 0 01-.018-.779 15.576 15.576 0 01.844-5.247 13.101 13.101 0 014.803-6.289q5.646-4.108 15.885-4.108h7.91v-3.736a11.523 11.523 0 00-.357-2.95 8.276 8.276 0 00-2.191-3.84q-2.55-2.526-7.515-2.526a14.253 14.253 0 00-3.42.39 10.678 10.678 0 00-3.875 1.807 8.555 8.555 0 00-1.645 1.58 5.924 5.924 0 00-1.299 3.737h-8.173a10.409 10.409 0 011.249-4.886 14.087 14.087 0 011.277-1.99 16.299 16.299 0 014.563-4.055 20.526 20.526 0 012.293-1.197 22.488 22.488 0 017.756-1.877 26.693 26.693 0 011.758-.057 26.495 26.495 0 015.174.475q4.626.921 7.702 3.634a13.959 13.959 0 014.534 8.26 19.98 19.98 0 01.3 3.056v21.884a41.78 41.78 0 00.18 4.009q.368 3.808 1.49 6.407zm131.792-23.994v.747a38.68 38.68 0 01-.642 7.256q-.817 4.277-2.675 7.668a21.597 21.597 0 01-1.65 2.566 15.702 15.702 0 01-11.38 6.532 20.126 20.126 0 01-2.066.104q-8.658 0-13.623-5.494v22.896h-8.13v-65.83h7.427l.395 5.273q4.966-6.152 13.799-6.152a18.285 18.285 0 016.372 1.066 15.965 15.965 0 017.185 5.394q4.077 5.28 4.822 13.937a47.14 47.14 0 01.166 4.037zm50.493 0v.747a38.68 38.68 0 01-.641 7.256q-.817 4.277-2.677 7.668A21.597 21.597 0 01475 66.51a15.702 15.702 0 01-11.382 6.532 20.126 20.126 0 01-2.065.104q-8.658 0-13.623-5.494v22.896h-8.13v-65.83h7.426l.396 5.273q4.966-6.152 13.8-6.152a18.285 18.285 0 016.37 1.066 15.965 15.965 0 017.186 5.394q4.077 5.28 4.821 13.937a47.14 47.14 0 01.167 4.037zm-422.799 5.45V8.28h8.482v45.308a24.573 24.573 0 01-.698 6.024 16.844 16.844 0 01-4.817 8.346 18.605 18.605 0 01-9.068 4.627 26.99 26.99 0 01-5.632.559 29.995 29.995 0 01-5.931-.55q-5.392-1.089-8.923-4.328a15.92 15.92 0 01-4.797-8.556 23.814 23.814 0 01-.52-5.111h8.437a16.11 16.11 0 00.355 3.49q.515 2.319 1.773 4.04a9.527 9.527 0 00.881 1.04 9.656 9.656 0 004.242 2.486q1.548.46 3.413.56a19.832 19.832 0 001.07.03q5.228 0 8.458-3.297a10.917 10.917 0 002.713-4.843q.471-1.713.547-3.753a21.195 21.195 0 00.014-.632zm260.42-48.956v67.5h-8.13v-67.5zM76.59 48.623v-.57a30.565 30.565 0 01.869-7.417 25.728 25.728 0 011.878-5.152 21.6 21.6 0 014.146-5.856 19.57 19.57 0 013.5-2.757 20.363 20.363 0 019.444-2.973 24.907 24.907 0 011.74-.06 22.77 22.77 0 017.533 1.197 19.366 19.366 0 018.178 5.526 22.895 22.895 0 015.19 10.287 33.727 33.727 0 01.809 7.6v.57a31.137 31.137 0 01-.796 7.167 25.773 25.773 0 01-1.864 5.292 20.564 20.564 0 01-5.274 6.9 20.007 20.007 0 01-2.328 1.692 20.453 20.453 0 01-9.198 2.985 25.288 25.288 0 01-2.162.09 22.617 22.617 0 01-7.504-1.196 19.38 19.38 0 01-8.163-5.527q-5.998-6.724-5.998-17.798zm126.08-24.17v7.558a22.508 22.508 0 00-2.428-.263 27.82 27.82 0 00-1.572-.044q-7.778 0-10.693 6.443a14.446 14.446 0 00-.162.369v33.75h-8.129v-47.55h7.91l.132 5.494a14.413 14.413 0 013.469-3.883q3.281-2.49 7.869-2.49a14.856 14.856 0 011.244.05q1.287.108 2.126.459a3.845 3.845 0 01.233.107zM87.214 59.865a15.448 15.448 0 001.218 1.854q3.67 4.79 9.822 4.79 6.087 0 9.714-4.686a14.74 14.74 0 00.13-.17q2.896-3.857 3.492-10.167a36.548 36.548 0 00.155-3.434q0-6.746-2.761-11.286a15.862 15.862 0 00-.952-1.392 12.308 12.308 0 00-4.15-3.555q-2.413-1.24-5.418-1.299a15.367 15.367 0 00-.298-.003 12.188 12.188 0 00-5.267 1.115q-2.534 1.197-4.446 3.676a15.89 15.89 0 00-2.52 4.975q-.695 2.204-.977 4.871a36.76 36.76 0 00-.193 3.865q0 6.464 2.45 10.846zm310.22-22.58v22.72a13.314 13.314 0 003.28 3.964q2.688 2.142 6.451 2.478a16.14 16.14 0 001.43.062 11.839 11.839 0 004.656-.887q2.698-1.141 4.639-3.75 3.45-4.635 3.45-13.776a30.572 30.572 0 00-.387-5.022q-.765-4.585-3.042-7.679a10.863 10.863 0 00-7.86-4.575 14.138 14.138 0 00-1.543-.083 13.059 13.059 0 00-5.159.98q-3.652 1.553-5.915 5.568zm50.493 0v22.72a13.314 13.314 0 003.279 3.964q2.688 2.142 6.452 2.478a16.14 16.14 0 001.431.062 11.839 11.839 0 004.656-.887q2.698-1.141 4.638-3.75 3.45-4.635 3.45-13.776a30.572 30.572 0 00-.387-5.022q-.765-4.585-3.042-7.679a10.863 10.863 0 00-7.86-4.575 14.138 14.138 0 00-1.543-.083 13.059 13.059 0 00-5.158.98q-3.652 1.553-5.916 5.568zm-94.13-18.588l-10.856 29.926h21.753zm-65.92 40.253v-9.756h-6.371a38.158 38.158 0 00-5.078.308q-5.558.75-7.984 3.334a7.158 7.158 0 00-1.88 5.103 9.2 9.2 0 00.345 2.583 6.865 6.865 0 002.205 3.394 8.935 8.935 0 004.134 1.933 12.59 12.59 0 002.412.22q3.824 0 7.252-1.977t4.966-5.142z" vector-effect="non-scaling-stroke" fill-rule="evenodd" font-size="12" fill="#fff"/></svg>